<svg width="3879" height="1000" xmlns="http://www.w3.org/2000/svg" xmlns:xlink="http://www.w3.org/1999/xlink"><defs><path d="M0 11.988h45.6l150 193.4064V11.988H244v279.72h-41.2L48.4 92.7072V291.708H0V11.988zm440.8 191.4084c-6.135-2.3976-13.4-4.3956-21.8-5.994-8.4-1.5984-17.265-2.3976-26.6-2.3976-15.2 0-27.065 2.932065-35.6 8.7912S344 217.647135 344 227.772v.7992c0 10.124865 3.935 17.847135 11.8 23.1768 7.865 5.329665 17.535 7.992 29 7.992 8 0 15.4-1.063935 22.2-3.1968 6.8-2.132865 12.735-5.129865 17.8-8.991 5.065-3.861135 9-8.526465 11.8-13.986 2.8-5.459535 4.2-11.523465 4.2-18.1818v-11.988zm-1.2 88.3116v-25.974c-7.2 8.526465-16.4 15.719265-27.6 21.5784-11.2 5.859135-24.8 8.7912-40.8 8.7912-10.135 0-19.735-1.3986-28.8-4.1958-9.065-2.7972-17-6.928065-23.8-12.3876-6.8-5.459535-12.265-12.252735-16.4-20.3796-4.135-8.126865-6.2-17.517465-6.2-28.1718v-.7992c0-11.723265 2.135-21.913065 6.4-30.5694 4.265-8.656335 10.2-15.849135 17.8-21.5784 7.6-5.729265 16.665-9.99 27.2-12.7872s21.935-4.1958 34.2-4.1958c12.8 0 23.665.7992 32.6 2.3976 8.935 1.5984 17.535 3.731265 25.8 6.3936v-3.996c0-14.650335-4.465-25.839135-13.4-33.5664-8.935-7.727265-21.8-11.5884-38.6-11.5884-12 0-22.665 1.1988-32 3.5964-9.335 2.3976-18.8 5.5944-28.4 9.5904l-13.2-38.7612c11.735-5.329665 23.735-9.5904 36-12.7872 12.265-3.1968 27.065-4.7952 44.4-4.7952 31.465 0 54.8 7.7922 70 23.3766 15.2 15.5844 22.8 37.497465 22.8 65.7342V291.708h-48zm176.4 3.5964c-8.8 0-16.935-1.063935-24.4-3.1968s-13.935-5.5944-19.4-10.3896c-5.465-4.7952-9.665-11.123865-12.6-18.981-2.935-7.857135-4.4-17.647335-4.4-29.3706V122.2776h-26.8V80.7192h26.8v-57.942h48.4v57.942h56.8v41.5584h-56.8V225.774c0 9.325665 2.265 16.048935 6.8 20.1798s10.935 6.1938 19.2 6.1938c10.4 0 20.4-2.3976 30-7.1928v39.5604c-6.135 3.461535-12.665 6.128865-19.6 7.992-6.935 1.863135-14.935 2.7972-24 2.7972zm96-3.5964h48.4V80.7192H712V291.708zm-2-243.3564h52V2.3976h-52v45.954zm214.8 206.1936c9.865 0 18.735-1.7982 26.6-5.3946 7.865-3.5964 14.6-8.456535 20.2-14.5854 5.6-6.128865 9.865-13.251735 12.8-21.3786 2.935-8.126865 4.4-16.718265 4.4-25.7742v-.7992c0-9.325665-1.6-18.116865-4.8-26.3736-3.2-8.256735-7.665-15.449535-13.4-21.5784-5.735-6.128865-12.535-10.989-20.4-14.5854-7.865-3.5964-16.6-5.3946-26.2-5.3946-9.6 0-18.335 1.7982-26.2 5.3946-7.865 3.5964-14.6 8.3916-20.2 14.3856s-9.865 13.121865-12.8 21.3786c-2.935 8.256735-4.4 16.918065-4.4 25.974v.7992c0 9.325665 1.6 18.046935 4.8 26.1738 3.2 8.126865 7.665 15.319665 13.4 21.5784 5.735 6.258735 12.535 11.1888 20.4 14.7852 7.865 3.5964 16.465 5.3946 25.8 5.3946zm-.8 41.958c-16 0-30.865-2.862135-44.6-8.5914-13.735-5.729265-25.6-13.521465-35.6-23.3766S826 243.091665 820.4 229.77c-5.6-13.321665-8.4-27.437535-8.4-42.3576v-.7992c0-15.1848 2.865-29.435535 8.6-42.7572 5.735-13.321665 13.6-24.975 23.6-34.965 10-9.99 21.865-17.917065 35.6-23.7762 13.735-5.859135 28.735-8.7912 45-8.7912s31.265 2.862135 45 8.5914 25.6 13.5864 35.6 23.5764 17.8 21.5784 23.4 34.7652c5.6 13.1868 8.4 27.3726 8.4 42.5574v.7992c0 14.920065-2.865 29.035935-8.6 42.3576-5.735 13.321665-13.6 24.975-23.6 34.965-10 9.99-21.935 17.917065-35.8 23.7762-13.865 5.859135-28.935 8.7912-45.2 8.7912zm162.4-215.784h48.4v32.7672c3.465-5.059935 7.265-9.7902 11.4-14.1858 4.135-4.3956 8.935-8.326665 14.4-11.7882 5.465-3.461535 11.465-6.1938 18-8.1918 6.535-1.998 13.935-2.997 22.2-2.997 24 0 42.535 7.327665 55.6 21.978 13.065 14.650335 19.6 34.3656 19.6 59.1408V291.708h-48.4v-119.88c0-16.518465-3.935-29.235735-11.8-38.1618-7.865-8.926065-19-13.3866-33.4-13.3866-14.135 0-25.6 4.5954-34.4 13.7862-8.8 9.1908-13.2 22.042935-13.2 38.5614V291.708h-48.4V80.7192zM1470 248.1516c16.8 0 30-3.1968 39.6-9.5904 9.6-6.3936 14.4-15.984 14.4-28.7712v-.7992c0-11.988-4.735-21.243735-14.2-27.7722-9.465-6.528465-23.935-9.7902-43.4-9.7902h-78v76.7232h81.6zM1455.6 129.87c16 0 28.8-3.131865 38.4-9.3906 9.6-6.258735 14.4-15.7842 14.4-28.5714v-.7992c0-11.1888-4.2-19.915065-12.6-26.1738-8.4-6.258735-20.6-9.3906-36.6-9.3906h-70.8V129.87h67.2zM1340 11.988h125.6c32.265 0 56.665 8.256735 73.2 24.7752 12.535 12.522465 18.8 27.972 18.8 46.3536v.7992c0 8.526465-1.135 16.048935-3.4 22.5774-2.265 6.528465-5.2 12.252735-8.8 17.1828-3.6 4.930065-7.865 9.255735-12.8 12.987-4.935 3.731265-9.935 6.928065-15 9.5904 8.265 2.932065 15.8 6.328665 22.6 10.1898 6.8 3.861135 12.665 8.456535 17.6 13.7862 4.935 5.329665 8.735 11.5884 11.4 18.7812 2.665 7.1928 4 15.5844 4 25.1748v.7992c0 12.522465-2.465 23.5764-7.4 33.1668-4.935 9.5904-11.935 17.5824-21 23.976-9.065 6.3936-20 11.253735-32.8 14.5854-12.8 3.331665-26.935 4.995-42.4 4.995H1340V11.988zm356 284.1156c-24 0-42.535-7.327665-55.6-21.978-13.065-14.650335-19.6-34.3656-19.6-59.1408V80.7192h48.4v119.88c0 16.518465 3.935 29.235735 11.8 38.1618 7.865 8.926065 19 13.3866 33.4 13.3866 14.135 0 25.6-4.5954 34.4-13.7862 8.8-9.1908 13.2-22.042935 13.2-38.5614V80.7192h48.4V291.708H1762v-32.7672c-6.935 10.124865-15.6 18.846135-26 26.1738s-23.735 10.989-40 10.989zm178-4.3956h48.4V80.7192H1874V291.708zm-2-243.3564h52V2.3976h-52v45.954zm116.4 243.3564h48.4V0h-48.4v291.708zm210.4-37.5624c8 0 15.735-1.5984 23.2-4.7952 7.465-3.1968 14-7.7922 19.6-13.7862 5.6-5.994 10.065-13.121865 13.4-21.3786 3.335-8.256735 5-17.447535 5-27.5724v-.7992c0-10.124865-1.665-19.3806-5-27.7722s-7.8-15.519465-13.4-21.3786c-5.6-5.859135-12.135-10.3896-19.6-13.5864-7.465-3.1968-15.2-4.7952-23.2-4.7952-8.265 0-16.065 1.533465-23.4 4.5954-7.335 3.061935-13.8 7.527465-19.4 13.3866-5.6 5.859135-10 12.987-13.2 21.3786-3.2 8.3916-4.8 17.7822-4.8 28.1718v.7992c0 10.124865 1.6 19.3806 4.8 27.7722 3.2 8.3916 7.6 15.519465 13.2 21.3786 5.6 5.859135 12.065 10.3896 19.4 13.5864 7.335 3.1968 15.135 4.7952 23.4 4.7952zm-11.6 41.958c-12.535 0-24.665-2.3976-36.4-7.1928-11.735-4.7952-22.135-11.853135-31.2-21.1788-9.065-9.325665-16.4-20.7792-22-34.3656-5.6-13.5864-8.4-29.1708-8.4-46.7532v-.7992c0-17.5824 2.735-33.1668 8.2-46.7532 5.465-13.5864 12.735-25.039935 21.8-34.3656 9.065-9.325665 19.535-16.3836 31.4-21.1788 11.865-4.7952 24.065-7.1928 36.6-7.1928 17.335 0 31.735 3.731265 43.2 11.1888 11.465 7.457535 21.065 16.118865 28.8 25.974V0h48.4v291.708h-48.4v-35.1648c-7.735 10.924065-17.4 20.244735-29 27.972-11.6 7.727265-25.935 11.5884-43 11.5884zm325.6-124.6752c-.8-7.727265-2.535-14.985-5.2-21.7782-2.665-6.7932-6.265-12.652335-10.8-17.5824-4.535-4.930065-9.935-8.856135-16.2-11.7882-6.265-2.932065-13.4-4.3956-21.4-4.3956-14.935 0-27.265 5.129865-37 15.3846s-15.665 23.641335-17.8 40.1598h108.4zm-48 125.0748c-15.2 0-29.4-2.662335-42.6-7.992-13.2-5.329665-24.665-12.7872-34.4-22.3776s-17.4-21.113865-23-34.5654c-5.6-13.451535-8.4-28.306665-8.4-44.5554v-.7992c0-15.1848 2.535-29.435535 7.6-42.7572 5.065-13.321665 12.2-24.975 21.4-34.965 9.2-9.99 20.065-17.847135 32.6-23.5764 12.535-5.729265 26.4-8.5914 41.6-8.5914 16.8 0 31.535 3.061935 44.2 9.1908 12.665 6.128865 23.2 14.3856 31.6 24.7752 8.4 10.3896 14.735 22.442535 19 36.1638 4.265 13.721265 6.4 28.1718 6.4 43.3566 0 2.132865-.065 4.330665-.2 6.5934s-.335 4.5954-.6 6.993h-155.2c2.665 17.317665 9.535 30.5694 20.6 39.7602 11.065 9.1908 24.465 13.7862 40.2 13.7862 12 0 22.4-2.132865 31.2-6.3936s17.465-10.524465 26-18.7812l28.4 25.1748c-10.135 11.988-22.2 21.5784-36.2 28.7712-14 7.1928-30.735 10.7892-50.2 10.7892zm144.8-215.784h48.4v47.5524c6.665-15.984 16.135-28.7712 28.4-38.3616 12.265-9.5904 27.735-13.986 46.4-13.1868v51.1488h-2.8c-10.665 0-20.4 1.733265-29.2 5.1948-8.8 3.461535-16.4 8.656335-22.8 15.5844-6.4 6.928065-11.335 15.649335-14.8 26.1738s-5.2 22.712265-5.2 36.5634v80.3196h-48.4V80.7192z" id="a"/></defs><g fill="none" fill-rule="evenodd"><g transform="translate(1146 350.649)"><mask id="b" fill="#fff"><use xlink:href="#a"/></mask><path fill="#FFF" mask="url(#b)" d="M-.3 296.9028h2733.6V-.3996H-.3z"/></g><path d="M500.344674 1000c178.45623 0 343.34669-95.295203 432.574805-250 89.228111-154.704797 89.228111-345.295203 0-500C843.691364 95.295203 678.800904 0 500.344674 0c-178.45623 0-343.34669 95.295203-432.5748055 250-89.2281151 154.704797-89.2281151 345.295203 0 500 89.2281155 154.704797 254.1185755 250 432.5748055 250v-47.9704797c-161.333132 0-310.409148-86.1623613-391.08493-226.0147603-80.6757818-139.852398-80.6757818-312.177122 0-452.02952 80.675782-139.852399 229.751798-226.01476 391.08493-226.01476 161.333132 0 310.409148 86.162361 391.08493 226.01476 80.675781 139.852398 80.675781 312.177122 0 452.02952-80.675782 139.852399-229.751798 226.0147603-391.08493 226.0147603V1000z" fill-opacity=".002" fill="#455A64"/><path d="M500.344674 1000c152.006665 0 295.755904-69.2804428 390.531977-188.247232l-37.471753-29.90775c-85.689219 107.546126-215.633076 170.1845023-353.060224 170.1845023V1000z" fill="#CE001B"/><path d="M890.876651 811.752768c94.776073-118.96679 130.275629-274.667897 96.453362-423.007381l-46.724493 10.664207c30.578278 134.114391-1.511404 274.889299-87.200622 382.435424l37.471753 29.90775z" fill="#780011"/><path d="M987.330013 388.745387c-33.822266-148.339483-133.316867-273.210332-270.26479-339.225092l-20.791018 43.210332C820.09872 152.416974 910.027242 265.295203 940.60552 399.409594l46.724493-10.664207z" fill="#6D7096"/><path d="M717.065223 49.520295c-136.947923-66.014755-296.493175-66.014755-433.441098 0l20.791017 43.210332c123.824515-59.686347 268.034549-59.686347 391.859063 0l20.791018-43.210332z" fill="#60BBD5"/><path d="M283.624125 49.520295C146.676202 115.535055 47.1816007 240.405904 13.3593344 388.745387l46.7244932 10.664207C90.6621054 265.295203 180.590627 152.416974 304.415142 92.730627l-20.791017-43.210332z" fill="#0F99BE"/><path d="M13.3593344 388.745387c-33.8222663 148.339484 1.6772895 304.040591 96.4533626 423.007381l37.471753-29.90775C61.5952313 674.298893 29.5055498 533.523985 60.0838276 399.409594l-46.7244932-10.664207z" fill="#8C9D26"/><path d="M109.812697 811.752768C204.588769 930.7195572 348.338009 1000 500.344674 1000v-47.9704797c-137.427149 0-267.371006-62.6383763-353.060224-170.1845023l-37.471753 29.90775z" fill="#FCD813"/><path d="M279 624.375v-43.956h86.792431l28.265896-162.837H308v-44.955h93.749519l23-140.859h53.173459l-24 140.859h134.826541l23-140.859h53.132168l-23 140.859H722v44.955h-87.792431l-28.265896 162.837H693v43.956h-93.764365l-24 143.856h-52.137937l24-143.856H412.235635l-24 143.856h-52.097622l23-143.856H279zm302.125686-206.793h-135.86987l-26.381502 162.837h135.86987l26.381502-162.837z" fill="#FFF" fill-rule="nonzero"/></g></svg>